# xmcd
#
# Track frame offsets:
#	150
#	12430
#	27172
#	38297
#	50977
#	62800
#	77877
#	91112
#	102690
#	116890
#	131042
#	143452
#	157445
#	172767
#	186827
#	199535
#	212797
#	225867
#	239322
#	252525
#
# Disc length: 3734
#
# Revision: 1
# Processed by: cddbd v1.5.1PL0 Copyright (c) Steve Scherf et al.
# Submitted via: ExactAudioCopy v0.90a11
# Normalized: r0:DSETVAR1,TDELIM( - )
#
DISCID=150e9414
DTITLE=Various Artist - Grooves from the Blues 40's
DYEAR=1900
DGENRE=
TTITLE0=Louis Jordan - Caldonia
TTITLE1=Billie Holiday - Baby, get lost
TTITLE2=Andy Kirk - Worried life Blues
TTITLE3=Joe Turner - Rock me mama
TTITLE4=Sam Price - The dirty dozens
TTITLE5=Dinah Washington with Lionel Hampton - Blow top Blues
TTITLE6=Wynonie Harris with Lucky Millender - Who threw the whiskey in the well
TTITLE7=Rosetta Tharpe - Trouble in mind
TTITLE8=Al Hibbler - Fat and forty
TTITLE9=Billie Holiday - Billie's Blues
TTITLE10=Louis Jordan - Boogie Woogie Blue Plate
TTITLE11=Jay McShann with Walter Brown - Confessin' the Blues
TTITLE12=Josh White - Jelly, Jelly
TTITLE13=Ella Johnson with Buddy Johnson's Orchestra - That's the stuff you gotta watch
TTITLE14=Cousin Joe - Box Car Shorty and Peter Blue
TTITLE15=Louis Jordan - What's the use of getting sober
TTITLE16=Gene Gilmor - Natchez fire
TTITLE17=Joe Turner - Piney Brown Blues
TTITLE18=Jimmy Lungeford with Dan Grissom - I'm gonna move to the outskirts of Town
TTITLE19=Clarence "Gatemouth" Brown - Justice Blues
EXTD=
EXTT0=
EXTT1=
EXTT2=
EXTT3=
EXTT4=
EXTT5=
EXTT6=
EXTT7=
EXTT8=
EXTT9=
EXTT10=
EXTT11=
EXTT12=
EXTT13=
EXTT14=
EXTT15=
EXTT16=
EXTT17=
EXTT18=
EXTT19=
PLAYORDER=
